# xmcd CD database file
#
# Track frame offsets:
#	150
#	25470
#	61770
#	80028
#	102714
#	124159
#	167469
#	187311
#	212127
#	246845
#	269004
#	294057
#
# Disc length: 4360 seconds
#
# Revision: 5
# Processed by: cddbd v1.5.2PL0 Copyright (c) Steve Scherf et al.
# Submitted via: CDex 1.51
#
DISCID=b611060c
DTITLE=Ken Follett - Die Tore der Welt
DYEAR=2008
DGENRE=Hörbuch
TTITLE0=075 Merthin wusste nicht ein noch aus
TTITLE1=076 März 1346 bis Dezember 1348 - Schwester Caris ...
TTITLE2=077 Ein Dieb hatte versucht, das kostbare Kirchengerät zu stehlen
TTITLE3=078 Caris war nicht wohl dabei ...
TTITLE4=079 Der Markt von Kingsbridge ...
TTITLE5=080 Die Krankheit, die mit Melwyn Cook begonnen hatte ...
TTITLE6=081 Am 11. Juli hatte König Edward ...
TTITLE7=082 Plündernd waren die Engländer durch die Normandie gestürmt
TTITLE8=083 Am 25. August trafen Caris und Meir ...
TTITLE9=084 Der Regenschauer war kurz aber heftig
TTITLE10=085 Die Ritter trieben die Armbruster zurück
TTITLE11=086 Caris beobachtete die Schlacht
EXTD=vollstaendige Lesung von Joachim Kerzel YEAR: 2008
EXTT0=
EXTT1=
EXTT2=
EXTT3=
EXTT4=
EXTT5=
EXTT6=
EXTT7=
EXTT8=
EXTT9=
EXTT10=
EXTT11=
PLAYORDER=
